HIERARCHY
ROOT ui
{
	 OFFSET 0 0 0
	 CHANNELS 3 XPosition YPosition Z Position
	 EndSite
	 {
	 OFFSET 0 -1 0
	 }
}
ROOT li
{
	 OFFSET 0 0 0
	 CHANNELS 3 XPosition YPosition Z Position
	 EndSite
	 {
	 OFFSET 0 -1 0
	 }
}
ROOT ul
{
	 OFFSET 0 0 0
	 CHANNELS 3 XPosition YPosition Z Position
	 EndSite
	 {
	 OFFSET 0 -1 0
	 }
}
ROOT ll
{
	 OFFSET 0 0 0
	 CHANNELS 3 XPosition YPosition Z Position
	 EndSite
	 {
	 OFFSET 0 -1 0
	 }
}
ROOT tt
{
	 OFFSET 0 0 0
	 CHANNELS 3 XPosition YPosition Z Position
	 EndSite
	 {
	 OFFSET 0 -1 0
	 }
}
ROOT tb
{
	 OFFSET 0 0 0
	 CHANNELS 3 XPosition YPosition Z Position
	 EndSite
	 {
	 OFFSET 0 -1 0
	 }
}
ROOT td
{
	 OFFSET 0 0 0
	 CHANNELS 3 XPosition YPosition Z Position
	 EndSite
	 {
	 OFFSET 0 -1 0
	 }
}
ROOT v
{
	 OFFSET 0 0 0
	 CHANNELS 3 XPosition YPosition Z Position
	 EndSite
	 {
	 OFFSET 0 -1 0
	 }
}
ROOT bn
{
	 OFFSET 0 0 0
	 CHANNELS 3 XPosition YPosition Z Position
	 EndSite
	 {
	 OFFSET 0 -1 0
	 }
}
MOTION
Frames: 13
Frame Time: 0.002
4.144040048122406E-4	0.0010347280502319336	0		0.5127438354492188	-2.514276611328125	0		-1.0574036865234375	-0.12337583160400391	0		-0.6166990966796875	-2.39367529296875	0		1.4304432373046876	-0.6587671508789062	0		2.998279052734375	-0.17436215209960937	0		4.3834111328125	-0.029467628479003905	0		5.57522412109375	0.1661001434326172	0		-0.2942626342773437	5.89466357421875	0		
0.003615001916885376	0.00392042088508606	0		0.5289008178710938	-2.507814453125	0		-0.9971776123046875	-0.1148402099609375	0		-0.5816336059570313	-2.396989013671875	0		1.43031298828125	-0.6594631958007813	0		3.00211767578125	-0.192798583984375	0		4.386640625	-0.025497400283813476	0		5.579595703125	0.17353494262695313	0		-0.16021495056152343	5.91585302734375	0		
7.358520030975342E-4	9.024490118026734E-4	0		0.4901230163574219	-2.49854541015625	0		-1.0011222534179687	-0.1184136962890625	0		-0.595395751953125	-2.38960986328125	0		1.424090576171875	-0.6670492553710937	0		3.0185185546875	-0.1723853759765625	0		4.377822265625	-0.025309776306152342	0		5.5757158203125	0.16313807678222655	0		-0.28883535766601565	5.89478466796875	0		
8.94523024559021E-4	8.519629836082458E-4	0		0.5401112060546875	-2.50756884765625	0		-1.0010133056640624	-0.11804572296142578	0		-0.598280517578125	-2.392380615234375	0		1.4239700927734376	-0.6676941528320313	0		2.987427001953125	-0.18522721862792968	0		4.3779697265625	-0.027188426971435548	0		5.56597265625	0.16290972900390624	0		-0.15488288879394532	5.91587548828125	0		
-0.07101364135742187	-0.0020724151134490967	0		0.49823617553710936	-2.5081904296875	0		-1.0368961181640626	-0.1161250762939453	0		-0.5861929931640625	-2.398380126953125	0		1.4238460693359376	-0.6683069458007812	0		2.998604248046875	-0.17964051818847657	0		4.38885400390625	-0.04515864181518554	0		5.57201171875	0.1495382080078125	0		-0.2846820068359375	5.89594482421875	0		
0.0042138280868530276	0.0037339088916778563	0		0.5362828979492188	-2.516029541015625	0		-0.983931884765625	-0.12359661102294922	0		-0.6188728637695312	-2.390677001953125	0		1.4377774658203124	-0.6651063232421875	0		3.019373046875	-0.19915338134765626	0		4.3930576171875	-0.04093889999389649	0		5.5853046875	0.15416030883789061	0		-0.1470211181640625	5.91187890625	0		
0.004325113773345947	0.0037125918865203856	0		0.5266255493164063	-2.50709912109375	0		-0.9967027587890624	-0.1130489501953125	0		-0.5857175903320313	-2.396023193359375	0		1.452740966796875	-0.65989306640625	0		3.00588330078125	-0.17104722595214844	0		4.387283203125	-0.034459228515625	0		5.58547021484375	0.15211019897460937	0		-0.14572955322265624	5.91392822265625	0		
0.0013756120204925536	7.503460049629212E-4	0		0.5477505493164062	-2.514653076171875	0		-1.0007084350585937	-0.11665332794189454	0		-0.5993176879882812	-2.388619873046875	0		1.4265186767578124	-0.6659671630859375	0		2.986461669921875	-0.1997637176513672	0		4.3842705078125	-0.04191477203369141	0		5.57665478515625	0.1523446807861328	0		-0.27694537353515625	5.89517431640625	0		
0.0014686520099639892	7.463399767875671E-4	0		0.5112381286621094	-2.503223388671875	0		-1.0006524658203124	-0.11634004974365235	0		-0.5691207275390625	-2.3969560546875	0		1.4433135986328125	-0.6717088623046875	0		3.007741455078125	-0.18606976318359375	0		4.37848583984375	-0.035206260681152346	0		5.5767958984375	0.15057542419433595	0		-0.14263319396972657	5.91502490234375	0		
-0.0015072940587997437	-0.003200045108795166	0		0.530288818359375	-2.521711181640625	0		-1.0365716552734374	-0.11442814636230468	0		-0.6277182006835937	-2.39579150390625	0		1.4262984619140624	-0.6668359375	0		3.019502685546875	-0.20314779663085938	0		4.38442919921875	-0.04458162307739258	0		5.5728115234375	0.14202273559570314	0		-0.14081817626953125	5.915068359375	0		
0.0047093830108642576	0.0037000250816345216	0		0.5048074645996093	-2.516410888671875	0		-1.0206303100585938	-0.12142598724365235	0		-0.5902803955078125	-2.397282470703125	0		1.429269775390625	-0.664261474609375	0		2.993002685546875	-0.17747579956054688	0		4.3934775390625	-0.047895538330078126	0		5.5770322265625	0.14547987365722656	0		-0.12399864196777344	5.92384765625	0		
0.00176261305809021	7.595009803771973E-4	0		0.5136281127929687	-2.498686279296875	0		-1.0264649658203124	-0.11606968688964844	0		-0.6734876098632813	-2.381668212890625	0		1.4322862548828126	-0.6606495971679688	0		3.01960107421875	-0.20465745544433595	0		4.38285546875	-0.03274619293212891	0		5.58617041015625	0.1439951171875	0		-0.13665292358398437	5.91413330078125	0		
0.006789995193481445	-0.00432296895980835	0		0.5189611206054687	-2.51289453125	0		-1.0003583984375	-0.11530976867675781	0		-0.604032470703125	-2.390769775390625	0		1.4230673828125	-0.6717855834960937	0		3.002089599609375	-0.18197633361816407	0		4.38471484375	-0.047707969665527344	0		5.581498046875	0.15289814758300782	0		-0.13527394104003906	5.9141689453125	0		
